<?xml version="1.0" encoding="UTF-8"?>
<svg version="1.1" xmlns="http://www.w3.org/2000/svg" width="500" height="500">
<path d="M0 0 C165 0 330 0 500 0 C500 165 500 330 500 500 C335 500 170 500 0 500 C0 335 0 170 0 0 Z " fill="#0A0B12" transform="translate(0,0)"/>
<path d="M0 0 C4.34023999 4.47176241 5.31325303 8.37133798 5.625 14.5 C5.46536918 21.18929137 3.61709208 24.42679465 -0.9375 29.125 C-2.06778872 30.45385296 -3.19305632 31.78699827 -4.3125 33.125 C-5.17875 34.115 -6.045 35.105 -6.9375 36.125 C-6.36902344 36.27195313 -5.80054688 36.41890625 -5.21484375 36.5703125 C0.64448221 38.27235376 5.02379243 40.46671797 9.0625 45.125 C12.30384033 51.18489713 12.0830305 59.66514164 10.125 66.1875 C6.14000006 75.25616809 -2.09026224 82.09990534 -10.9375 86.125 C-20.96296966 89.90250505 -30.45583998 90.30124093 -40.71875 87.14453125 C-42.9375 86.125 -42.9375 86.125 -44.4375 83.6875 C-44.6025 82.511875 -44.7675 81.33625 -44.9375 80.125 C-45.46754043 78.05948162 -46.01026295 75.99719495 -46.5625 73.9375 C-47.34847888 70.84416727 -47.9375 68.32024977 -47.9375 65.125 C-46.6175 65.125 -45.2975 65.125 -43.9375 65.125 C-43.64617187 65.78886719 -43.35484375 66.45273437 -43.0546875 67.13671875 C-39.9855865 73.74783254 -37.37687505 78.02096006 -30.61328125 81.2265625 C-24.50196489 83.27853734 -17.34345346 83.15934115 -11.4375 80.5 C-6.88746532 77.8190667 -4.87541674 74.141521 -2.6875 69.4375 C-1.02632395 62.10063911 -0.96082328 55.33646613 -4.79296875 48.71484375 C-7.08312064 45.53364301 -9.2740163 44.34616123 -12.9375 43.125 C-18.9750061 42.82878758 -25.01422561 42.8087168 -30.9375 44.125 C-30.6075 41.815 -30.2775 39.505 -29.9375 37.125 C-29.23625 37.11082031 -28.535 37.09664062 -27.8125 37.08203125 C-19.88237165 36.68336991 -14.42348229 34.94833542 -9 29 C-6.16911219 24.00431563 -6.51202045 18.69714562 -6.9375 13.125 C-8.26150133 9.23574609 -10.16377248 7.78451568 -13.625 5.8125 C-18.61367327 3.5780851 -22.86416549 3.07625264 -28.078125 4.85546875 C-32.4351853 6.83228315 -35.41499935 8.953172 -37.9375 13.125 C-38.78087799 15.45155998 -39.36866853 17.70746627 -39.9375 20.125 C-41.5875 20.125 -43.2375 20.125 -44.9375 20.125 C-41.85889795 2.95366683 -41.85889795 2.95366683 -37.6875 -0.75 C-35.8359375 -1.9375 -35.8359375 -1.9375 -33.9375 -2.875 C-33.35226563 -3.205 -32.76703125 -3.535 -32.1640625 -3.875 C-21.45465665 -8.93598504 -9.52542415 -6.08005797 0 0 Z " fill="#EEEFF6" transform="translate(203.9375,193.875)"/>
<path d="M0 0 C0.00586624 1.04569656 0.01173248 2.09139313 0.01777649 3.16877747 C0.07493582 13.01309572 0.14766161 22.85719162 0.23571491 32.70128345 C0.28048383 37.76250944 0.31972547 42.82365371 0.34643555 47.88500977 C0.37240359 52.76753536 0.41275955 57.64974758 0.46318626 62.5320797 C0.47989908 64.39679765 0.49138578 66.26156986 0.49761391 68.12635231 C0.50720719 70.73406623 0.53520819 73.34097042 0.56762695 75.94848633 C0.56619186 76.72316254 0.56475677 77.49783875 0.5632782 78.29598999 C0.61913483 82.37626553 0.61913483 82.37626553 2.35832214 85.97123718 C4.76103778 87.47690682 6.87927779 87.52231046 9.6875 87.6875 C10.68136719 87.75324219 11.67523438 87.81898438 12.69921875 87.88671875 C13.45847656 87.92410156 14.21773438 87.96148437 15 88 C15 89.32 15 90.64 15 92 C1.14 92 -12.72 92 -27 92 C-27 90.68 -27 89.36 -27 88 C-25.62714844 87.83564453 -25.62714844 87.83564453 -24.2265625 87.66796875 C-23.03804688 87.50941406 -21.84953125 87.35085938 -20.625 87.1875 C-19.44164062 87.03667969 -18.25828125 86.88585937 -17.0390625 86.73046875 C-13.70467916 86.29300666 -13.70467916 86.29300666 -12 83 C-11.70788378 79.78238126 -11.70788378 79.78238126 -11.77294922 76.05004883 C-11.77265717 75.34735367 -11.77236511 74.64465851 -11.77206421 73.92066956 C-11.77345692 71.59933093 -11.78901513 69.27831377 -11.8046875 66.95703125 C-11.80841784 65.34706294 -11.81126472 63.73709236 -11.81326294 62.12712097 C-11.82089773 57.89053068 -11.84054487 53.6540776 -11.8626709 49.4175415 C-11.88313265 45.09413509 -11.89226536 40.7707065 -11.90234375 36.44726562 C-11.92379094 27.96478079 -11.95792499 19.48240747 -12 11 C-17.05164456 12.64728491 -21.72317652 14.68495031 -26.51171875 16.9765625 C-29 18 -29 18 -32 18 C-32 16.02 -32 14.04 -32 12 C-31.319375 11.72027344 -30.63875 11.44054687 -29.9375 11.15234375 C-25.19284096 9.19012438 -20.46201013 7.21955375 -15.78125 5.109375 C-15.07097656 4.79105713 -14.36070312 4.47273926 -13.62890625 4.14477539 C-12.22768185 3.51470648 -10.82914352 2.87862385 -9.43359375 2.23608398 C-5.98071502 0.68855248 -3.85397685 0 0 0 Z " fill="#F2F3FA" transform="translate(320,188)"/>
<path d="M0 0 C0.00546844 1.56854485 0.00546844 1.56854485 0.01104736 3.16877747 C0.04795407 13.01313049 0.10567904 22.85716945 0.18390274 32.70128345 C0.22344845 37.76253895 0.25560201 42.82361861 0.27099609 47.88500977 C0.2861161 52.76759902 0.32047823 57.64970511 0.36830902 62.5320797 C0.38317104 64.39679457 0.39104376 66.2615784 0.39188385 68.12635231 C0.39424084 70.73425724 0.42121632 73.34081297 0.45410156 75.94848633 C0.4490712 76.72316254 0.44404083 77.49783875 0.43885803 78.29598999 C0.51318384 82.55906452 0.51318384 82.55906452 2.85931396 85.97123718 C5.54749187 87.26311158 7.77856007 87.51062858 10.75 87.6875 C11.73484375 87.75324219 12.7196875 87.81898438 13.734375 87.88671875 C14.48203125 87.92410156 15.2296875 87.96148437 16 88 C16 89.32 16 90.64 16 92 C1.81 92 -12.38 92 -27 92 C-27 90.68 -27 89.36 -27 88 C-26.25234375 87.95101562 -25.5046875 87.90203125 -24.734375 87.8515625 C-23.25710937 87.73941406 -23.25710937 87.73941406 -21.75 87.625 C-20.28820312 87.52058594 -20.28820312 87.52058594 -18.796875 87.4140625 C-15.68415798 87.1015826 -15.68415798 87.1015826 -12 85 C-11.67 60.25 -11.34 35.5 -11 10 C-16.61 12.64 -22.22 15.28 -28 18 C-28.99 18 -29.98 18 -31 18 C-31.33 16.02 -31.66 14.04 -32 12 C-31.29391602 11.70754395 -30.58783203 11.41508789 -29.86035156 11.11376953 C-26.65627864 9.78567551 -23.45313167 8.45536247 -20.25 7.125 C-18.58324219 6.43470703 -18.58324219 6.43470703 -16.8828125 5.73046875 C-15.81289062 5.28574219 -14.74296875 4.84101563 -13.640625 4.3828125 C-12.16384277 3.77010498 -12.16384277 3.77010498 -10.65722656 3.14501953 C-8.05644725 2.07321714 -8.05644725 2.07321714 -5.89746094 0.85107422 C-4 0 -4 0 0 0 Z " fill="#F2F3FA" transform="translate(260,188)"/>
</svg>
